{"title":"Arrow S04E05 Haunted 1080P WEB-DL DD5 1 H 264","uid":12700637,"size":1763547874,"categoryP":"video","categoryS":"hd___tv_shows","magnet":"?xt=urn:btih:13a6a152c24d9b82ef82e12f043e1ed0c2b97b86&amp;dn=Arrow+S04E05+Haunted+1080P+WEB-DL+DD5+1+H+264&amp;tr=udp%3A%2F%2Ftracker.leechers-paradise.org%3A6969&amp;tr=udp%3A%2F%2Fzer0day.ch%3A1337&amp;tr=udp%3A%2F%2Fopen.demonii.com%3A1337&amp;tr=udp%3A%2F%2Ftracker.coppersurfer.tk%3A6969&amp;tr=udp%3A%2F%2Fexodus.desync.com%3A6969","seeders":2,"leechers":0,"uploader":"jmanwf","files":2,"time":1446769716,"description":"When things take a turn for the worse with Sara (guest star Caity Lotz), Oliver calls in a favor from an old friend who deals in the mystical, John Constantine (guest star Matt Ryan).\r\n\r\n\r\nVideo\r\nID : 2\r\nFormat : AVC\r\nFormat/Info : Advanced Video Codec\r\nFormat profile :   \r\nFormat settings, CABAC : Yes\r\nFormat settings, ReFrames : 4 frames\r\nCodec ID : avc1\r\nCodec ID/Info : Advanced Video Coding\r\nDuration : 42mn 28s\r\nBit rate : 5 023 Kbps\r\nWidth : 1 916 pixels\r\nHeight : 1 076 pixels\r\nDisplay aspect ratio : 16:9\r\nFrame rate mode : Constant\r\nFrame rate : 23.976 fps\r\nColor space : YUV\r\nChroma subsampling : 4:2:0\r\nBit depth : 8 bits\r\nScan type : Progressive\r\nBits/(Pixel*Frame) : 0.102\r\nStream size : 1.49 GiB (91%)\r\nLanguage : English\r\nEncoded date : UTC 2015-11-05 12:18:31\r\nTagged date : UTC 2015-11-05 12:23:03\r\nColor range : Limited\r\nColor primaries : BT.709\r\nTransfer characteristics : BT.709\r\nMatrix coefficients : BT.709\r\n\r\nAudio #1\r\nID : 1\r\nFormat : AAC\r\nFormat/Info : Advanced Audio Codec\r\nFormat profile : LC\r\nCodec ID : 40\r\nDuration : 42mn 28s\r\nBit rate mode : Variable\r\nBit rate : 125 Kbps\r\nMaximum bit rate : 189 Kbps\r\nChannel(s) : 2 channels\r\nChannel positions : Front: L R\r\nSampling rate : 48.0 KHz\r\nCompression mode : Lossy\r\nStream size : 38.0 MiB (2%)\r\nLanguage : English\r\nEncoded date : UTC 2015-11-05 12:18:30\r\nTagged date : UTC 2015-11-05 12:23:03\r\n\r\nAudio #2\r\nID : 3\r\nFormat : AC-3\r\nFormat/Info : Audio Coding 3\r\nMode extension : CM (complete main)\r\nFormat settings, Endianness : Big\r\nCodec ID : ac-3\r\nDuration : 42mn 28s\r\nBit rate mode : Constant\r\nBit rate : 384 Kbps\r\nChannel(s) : 6 channels\r\nChannel positions : Front: L C R, Side: L R, LFE\r\nSampling rate : 48.0 KHz\r\nBit depth : 16 bits\r\nCompression mode : Lossy\r\nStream size : 117 MiB (7%)\r\nLanguage : English\r\nEncoded date : UTC 2015-11-05 12:18:31\r\nTagged date : UTC 2015-11-05 12:23:03\r\n\r\nText\r\nID : 4-CC1\r\nFormat : EIA-608\r\nMuxing mode : Final Cut\r\nCodec ID : c608\r\nDuration : 41mn 55s\r\nBit rate mode : Constant\r\nStream size : 0.00 Byte (0%)\r\nLanguage : English\r\nEncoded date : UTC 2015-11-05 12:18:31\r\nTagged date : UTC 2015-11-05 12:19:00\r\n\r\n\r\n \nhttps://itunes.apple.com/us/tv-season/arrow-season-4/id1027608805","torrent":{"xt":"urn:btih:13a6a152c24d9b82ef82e12f043e1ed0c2b97b86","amp;dn":"Arrow+S04E05+Haunted+1080P+WEB-DL+DD5+1+H+264","amp;tr":["udp%3A%2F%2Ftracker.leechers-paradise.org%3A6969","udp%3A%2F%2Fzer0day.ch%3A1337","udp%3A%2F%2Fopen.demonii.com%3A1337","udp%3A%2F%2Ftracker.coppersurfer.tk%3A6969","udp%3A%2F%2Fexodus.desync.com%3A6969"],"infoHash":"13a6a152c24d9b82ef82e12f043e1ed0c2b97b86","infoHashBuffer":{"type":"Buffer","data":[19,166,161,82,194,77,155,130,239,130,225,47,4,62,30,208,194,185,123,134]},"announce":[],"urlList":[]}}